<svg xmlns="http://www.w3.org/2000/svg" viewBox="0 0 312.22 263.14"><defs><style>.cls-1{fill:#fac748;}</style></defs><g id="Capa_2" data-name="Capa 2"><g id="Capa_1-2" data-name="Capa 1"><path class="cls-1" d="M17.37,107.49A19.1,19.1,0,0,1,4.52,99.7c.27-1.09.19-1.91-1.28-1.67C2,97.28,1.68,96,1.45,94.71c.66-1.72-1-3.23-.45-4.94a10.79,10.79,0,0,0,.19-5,5.22,5.22,0,0,0-.69-1,18.24,18.24,0,0,1,3-8c2.15-.16,1.41-2,1.84-3.15a10.83,10.83,0,0,1,3.72-5c2.43-.75,4.14-2.62,6.15-4,2-.2,2.28,1.2,2.55,2.64-.06.22-.13.44-.19.66a4.74,4.74,0,0,1-1.08.87c-1.31.62-2.28,1.42-1.72,3.08,0,1.45-.92,2.43-1.69,3.5-1.2,2-3.12,3.48-3.4,6a2.68,2.68,0,0,0,1,2.43c1.94.08,1.2-1.52,1.52-2.44a9.66,9.66,0,0,1,.61-3.41c5.41-6.82,11.4-13,18.8-17.77a28.65,28.65,0,0,1,6.61-5.24c2.41-2,5.15-3.63,7.69-5.49,1.39-1,2.75-1.93,4.52-.87a24.65,24.65,0,0,0,4.59,8.69,9,9,0,0,1,2.51,6.34c-.24,3.49,1.29,6,3.71,8.22-.32,2.3-3,3.25-3.12,5.79-.2,3.46-1.68,6.72,3.5,8.51,2.9,1,6.29,3.16,6.77,7.37.31,2.73,3.71,2.51,5,4.44,1.1,1.24,1.82,2.78,3.1,3.88l14.62,20a8.73,8.73,0,0,0-.21,2.88c0,.31-.13.68.24.9-.25-.52,0-.86.41-1.13q1.48,3,3,5.94c1.16,2.09,1.22,4-.87,5.62a3.1,3.1,0,0,1-2.61-.17l-1.67-2.26c-1.61-.77-2.45-3.35-4.93-2.11C81,129,79,125.94,76.27,123.83a6.08,6.08,0,0,0-4.21-3c-7.81-6.23-15.07-13.2-24-18-1.84-1.65-4.1-1.7-6.39-1.66-1.74.38-3.73-.84-5.24.88-4.05,1.81-7.79,4.29-12.15,5.41-.56-.23-1.13-.45-1.7-.64a12.93,12.93,0,0,0-4.21,0A4.79,4.79,0,0,0,17.37,107.49Z"/><path class="cls-1" d="M281.2,114.87c5.25-.3,1.33-2.58.9-4.11-.12-2,0-3.86,1.65-5.25.95-.73,2.18-.25,3.3-.74.36-1.72-1.74-2.58-1.61-4.22,0-2.26,1.7-3.17,3.3-4.15,2.16-1.18.62-2-.33-2.75-2.23-1.8-5.11-2.86-6.4-5.71a3.76,3.76,0,0,1,.75-3.1c.71-.62,1.54-.18,2.3-.29.9-.59,1-1.67,1.61-2.46,1.68-2.1,3.1.69,4.7.25.94-.18.74-1.06,1-1.65.64-1.26.18-2.62.36-3.93A3.35,3.35,0,0,1,296.16,74c1.56,1.64,1.56,3.77,1.83,5.81a6.22,6.22,0,0,0-.3,2.93c0,.32-.13.71.22,1a.88.88,0,0,1,.41-1.19q.84,3.13,1.66,6.27c-.29,1.94.75,2.6,2.48,2.59h0c2.76,4.48,4.22,9.48,5.85,14.41-2.67,5.89-6.8,10.85-10.68,15.87-1.9,2.44-3.23,5.22-5.24,7.5-1.19,1.34-1.28,4-4,3.75a5.33,5.33,0,0,1-2-2.37,4.53,4.53,0,0,0,2,2.37c-.07,1.57-.17,3.13-1.86,3.94-.87.53-2.06,1.09-2.75.38-3.3-3.36-8.11-3.34-11.88-5.58-.84-2.08.13-4,.48-6,.42-1.22.74-2.51,2-3.25,3.26,2.75,3.6-.54,4.7-2.27C278.06,117.82,279.42,116.18,281.2,114.87Z"/><path class="cls-1" d="M124.41,180.66c-.62-4.18-1.59-7.94-6.64-9.09-2-.45-1.74-2.61-1.07-4.23,1.54-3.75.66-6.7-2.15-9.64a174,174,0,0,0-13.37-13c-.26-1.46-2-2.38-1.54-4.11s.09-3.84,1.78-5.19c5.17,2.43,7.93,7.48,11.9,11.2,1.91,1.78,4,3.18,6.39,5.57,2.23-9.72,4.3-18.79,6.38-27.85a1.34,1.34,0,0,0,1.66,0c.51,0,1,0,1.28-.55a10.17,10.17,0,0,0-.12-3.12c-.19-1.73-1.65-3.29-.69-5.17l1.07-1.83c1.28-2.95.53-6.11.93-9.16-.48-2.42.73-4.54,1.21-6.8,2.62,1.77,1,4.2,1,6.37l-.24,10.61c-1,2.78.21,5.77-.81,8.55-.07,3.81-.13,7.62-.2,11.44-1,2.78.22,5.77-.8,8.54.21,6.46.33,12.9-1,19.27a10.78,10.78,0,0,0,3.76,4.14c3.37,5,8.28,8.43,12.32,12.75,5,5.32,10.51,10.11,15,15.87-.5,3.53-2.62,3.5-5.24,2.39l-17-16.88a5.36,5.36,0,0,0-3.17-3.05c-1.74.1-1.57-3.59-4-2A2.44,2.44,0,0,1,130,177.3c-1.55.5-3.25.77-3.94,2.59C125.62,180.44,125.17,180.88,124.41,180.66Z"/><path class="cls-1" d="M88.66,10.65A57,57,0,0,1,103,24.07a2.88,2.88,0,0,1-1.24,4.6C91.12,32.62,83.23,40.23,75.38,48c-5.87-1.16-11.53-2.67-14.5-8.67-.72-1.91.72-3.13,1.83-4.58-3.1.51-4.67,3.66-7.79,3.37-2.61-1.45-3.46-3.11-.6-5.2,2.67-2.74,4.62-6.17,7.92-8.31,1.58.83.21,4.34,2.94,3.76,2.93-.62,7,1.08,8.37-3.39a10.57,10.57,0,0,1,1.14-1.68c2.3-2.16,2.7-5.5,4.8-7.77a3.05,3.05,0,0,1,1.19-.32,8.55,8.55,0,0,0,1.75-.07c1-.88.82-2.33,1.59-3.32C85.33,10.4,86.78,9.6,88.66,10.65Z"/><path class="cls-1" d="M114.18,37.72c4.95-2.5,10.41-3.27,15.74-4.42a5.62,5.62,0,0,1,5.42,1.44c.2,1.35,1.32,2,2.11,3,4.43,0,7.83-4.13,12.51-3.07a74.1,74.1,0,0,1,16.51,0c1.77.36,3.78.17,4.92,2-2,2-4.35,1-6.55.71-3.42-.41-6.85-.73-10.26-1.18-1.61-.18-3.29.39-4,0h3.72c2.35.81,5.29-.53,7.17,2-.9,2.16-2.76,1.38-4.31,1.42.37.6,1.23.58,1.45,1.26-2.9,1.3-6.05.33-9.14,1.22-5.38,1.56-7.82,5.13-10.58,9.64-3.26,5.33-9.47,8-15.12,10.6-2.34,1.1-2.15-3.24-4.54-2.89-1.1-.41-2.62-.11-3-1.76.92-1.18,3-1.11,3.26-3,.72-.7,1.54-1.62,1-2.51-.35-.59-.73.72-1.34.77-3.42-7.82-4.28-6.14-11.87-3.73-1.52.49-3.64,2.31-4.44.36-.87-2.12,2.21-2,3.44-3,2.53-2,7-1.43,7.9-5.71C113.63,39.88,114.76,38.79,114.18,37.72Z"/><path class="cls-1" d="M227.34,182.37c1.39-.39,3.24.54,3.95-1.73.61-1.92-1.17-2-1.87-2.95-1-1.34-2.26-2.54-3.4-3.8l.43-.63c1.15-.78,2.41-.58,3.67-.43a24.74,24.74,0,0,1,3.22,1.8l1.88.82c.65-.33,1.48-.19,2.05-.76l1.33-1.09c1.06-3.13,2.89-3.34,5.79-2.07,4.63,2,6.58,1.41,8.41-2.92s4.73-5.71,9.09-4.81c2.1.71,1.71,2.41,1.59,4-.31,3.51-3.09,5.5-4.93,8.09-4.87,6.81-9.62,13.7-14.49,20.51-.42.59-1.32.85-2,1.26a3.69,3.69,0,0,1-1.85,1.9c-2.29,1.45-4.75.19-7.12.46q-1.93-1.23-3.85-2.48a91.28,91.28,0,0,1-2.87-9.28C225.92,186.24,225.48,184.08,227.34,182.37Z"/><path class="cls-1" d="M61.23,38.73c3.44,3.31,6.37,7.45,12,7.08,1.4-.09,2,.86,2.15,2.14L61.15,70.74c-3.52-.55-5.45-2.46-4.79-6.15.85-4.8-2.61-7.63-4.81-11-1.17-1.8-2.82-3.43-1.21-5.78-.34-.39-.71-1-.43-1.31C53.18,43.16,55.92,39.05,61.23,38.73Z"/><path class="cls-1" d="M154.2,35.82c5.78-.66,11.44.88,17.19.9,6.1,3.23,12,6.68,16.37,12.28a2.89,2.89,0,0,0,4.64,0A9.41,9.41,0,0,1,196,46.64c2.5-.41,2.58,1.78,3.41,3.17-.31,3.68-4.86,3.9-5.78,7.08-2.93,1.68-5.46,1.38-7.62-1.39-.68-.86-1.54-1.7-2.86-1.42-4.08-3.63-7.94-7.55-13-9.85-.75-2.19-.29-3.29,2.61-2.5-2.43-1.72-4.08,1.61-6.11.47a6.07,6.07,0,0,0-3.91-1A2.66,2.66,0,0,1,161,40a1.14,1.14,0,0,1,.25-1.26c-2.06-1.66-4.78-1-7-2A.5.5,0,0,1,154.2,35.82Z"/><path class="cls-1" d="M262.21,164.67c-4-.21-7.43-.15-8.44,5.26-.65,3.51-5.74,5.18-9.42,3-2.65-1.58-3.95-.37-5.75.69-.65-2.35-3.83-2.45-4.39-4.88-.83-1-.42-1.82.33-2.6a2.57,2.57,0,0,1,2.77-.48c1.75.93,3.45,2,5.25,2.78s1.5-.88,1.85-1.77a5.33,5.33,0,0,1,3.81-5c3.59-.81,2.52-3.19,1.82-5.44-.75-1.62-.46-2.91,1.24-3.71,2-.27,3.89,3.88,6,.18C260.1,156.21,263.28,159.57,262.21,164.67Z"/><path class="cls-1" d="M259.34,135.64c2.81-.12,4.93,2.48,7.84,2a1.65,1.65,0,0,1,.45,1.06c.14,1,1,1.26,1.69,1.75a6.39,6.39,0,0,0,6.88,2.33c1.53-.36,3.25-.48,4.42,1.09-2.2,7.06-8,11.55-12.27,17.11-2-.7-1.79-2.46-2-4-.18-.46-.33-1.09-.72-1.24-4.62-1.78-5.73-5.39-5.28-9.85-.55-2-1.71-3.77-2.4-5.72a5.82,5.82,0,0,1-.36-3.61C258,135.8,258.42,135.23,259.34,135.64Z"/><path class="cls-1" d="M201.2,218.63c-1.36,4.27-4.49,7.39-7.16,10.78a2.76,2.76,0,0,0-.75,2.12c.66,1.66,1.18,3.32-.21,4.9-3.13.48-5.45,2.79-8.37,3.77a3.31,3.31,0,0,1-2.17-1.56c3.37-6.21,2.6-11.61-3.17-16,.37-2.15,2.22-3.46,3-5.36,2.07,1.23,2.48,3.65,3.85,5.38,2.43,3.09,5.39,3.14,7.12-.4a10.12,10.12,0,0,1,4.43-4.76A1.16,1.16,0,0,1,199,217,3.88,3.88,0,0,1,201.2,218.63Z"/><path class="cls-1" d="M267.2,138.6c0-.33,0-.66,0-1a3.32,3.32,0,0,0,.14-3.35.88.88,0,0,1,.11-1.14,9.72,9.72,0,0,1,2.68-1.87,1.86,1.86,0,0,1,1.85.35c4.12.53,8.6,0,11.4,4.17.77,1.14,2.06.87,3.17,1.06-1.47,2.76-2.83,5.61-5.91,7-1.33,0-2.86-.48-3.95,0-4,1.86-6.57.34-8.46-3.18C269,139.45,267.69,139.22,267.2,138.6Z"/><path class="cls-1" d="M123.12,211.58a18.07,18.07,0,0,1,6.18-3.92c.27.16.53.45.83.06a.55.55,0,0,1-.82-.07c.65-5.16-1.85-9.91-1.91-15,1-.64,2-1.47,3.14-1.17,2.84.78,1.2-1.55,1.75-2.33a2.52,2.52,0,0,1,1.11-1.73c1.28,2.25,1.3,4.8,1.75,7.25-1.24,2.6,1.21,4.79.83,7.29.7,1.1.29,2.62,1.33,3.59l2,4.93c1,1.5.34,2.59-.89,3.53-4.18.39-8.39-.24-12.58.28A3.57,3.57,0,0,1,123.12,211.58Z"/><path class="cls-1" d="M94.22,191.44c6-4.9,11-10.72,16.08-16.46,2.32-2.64,3.85-2.47,6-.29.37,1.36,1,2.72.1,4.12-4.62,5.64-10.35,10.12-15.73,15-1.18.25-2,1.24-3.2,1.47a3.69,3.69,0,0,1-2.59-1.16C94.19,193.31,93.67,192.5,94.22,191.44Z"/><path class="cls-1" d="M227.34,182.37c-.48,3.36.34,6.48,1.48,9.62.63,1.74,1.93,3.59.42,5.56l-4.86-2.89c-3.07,1.32-3.48-1-4.18-3-1.33-2.64-5.06-2.84-6-5.88-1.07-2.07-1.38-4.15,0-6.22l.92-1.16a9.07,9.07,0,0,1,3.54,1.58c.38.32.76.66,1.16,0a2.22,2.22,0,0,1,1.48-1.41C223.11,180.12,226.43,179.34,227.34,182.37Z"/><path class="cls-1" d="M261.21,145.69c.09.13.14.33.27.4,2.87,1.73-2.86,5.18,1.11,6.34a9.14,9.14,0,0,1,5.62,4.25c-2.56,1.61-1.37,3.3-.11,5-.07,3.15-2.58,4.47-4.62,6.14-1.92-.44-.13-2.38-1.27-3.14-.54-4.44-4.36-7.54-4.93-12,.44-3.3-4.43-2.81-4.24-5.94.36-.81-.42-1.46-.32-2.25a2.28,2.28,0,0,1,1.9-1.68C257.34,142.57,259.32,144,261.21,145.69Z"/><path class="cls-1" d="M155.2,197.68c2.1,0,4-.42,5.24-2.39,4.24,2.81,7,7.19,10.83,10.4a7,7,0,0,0,3.11,2.92l2.75,4a8.73,8.73,0,0,1-2.93,3.14c-3.64-.65-4.84-4.14-6.92-6.4C163.46,205.24,158.48,202.33,155.2,197.68Z"/><path class="cls-1" d="M74.32,24.85c-.77,3.49-5.92,6.51-10.06,5.44-3-.77-1.94-3.59-2-5.73,3-3.08,4.64-7.18,8-9.91a4.48,4.48,0,0,1,3.62,3c.14,2-.74,4,0,6C74.06,24,74.19,24.43,74.32,24.85Z"/><path class="cls-1" d="M88.66,10.65a6.33,6.33,0,0,0-4.35,2.13c-.87.6-1.5,0-2.14-.45a4.75,4.75,0,0,0-1.22-1,1.79,1.79,0,0,0-1.25.76A7,7,0,0,1,77,14.48a4.47,4.47,0,0,1-3.18,0c-.67-.75-1.13-1.79-2.4-1.67C72,8.55,74.29,5,76.11,1.25S78.6,3.41,80.32,2a13.86,13.86,0,0,0,5,4.8C85.8,8.6,89.05,8,88.66,10.65Z"/><path class="cls-1" d="M144.22,120.56c.5-1.25-.36-2.91,1.16-3.85s2.51-.28,3.21,1.14c.76,4.17-2.94,7-3.25,10.85-.39.64-2,.8-.81,2.07-.84,4.15-1.75,8.27-4.27,11.81-2.52-1.1-2.15-4.34-4.25-5.75a1.3,1.3,0,0,1,.22-1.26c2.13-3.42,1.91-7.88,4.84-10.95A8.07,8.07,0,0,0,144.22,120.56Z"/><path class="cls-1" d="M287.37,54.69c1.05.17,1.18.85,1,1.74,1.16,3.39.34,5.19-3.61,4.49-1.71-2.26-4-4.17-4.61-7.13-.26-1.73-1.13-2.79-3-2.76l-1-1c-.45-1.54-.72-3.27-3-2.84q-2-1.57-4-3.16c-.71-2.31-.79-4.28,2.43-4.43a.58.58,0,0,1,.71.35c1.48.7,2.45,2.12,3.95,2.78,1.81,2.44,5.6,3.07,6.15,6.67C283.14,52,285.36,53.25,287.37,54.69Z"/><path class="cls-1" d="M254.5,30.55c4.35,1.85,9.87,1.3,12.71,6.22,1.22,2.36.18,3.8-2,4.77a72.42,72.42,0,0,0-15-5.85c-.73-.82-1.85-1.17-2.44-2.14a2,2,0,0,1,.87-2.3,4.22,4.22,0,0,1,1.2-.39c1.18-.12,2.37.1,3.55-.08C253.76,30.69,254.13,30.61,254.5,30.55Z"/><path class="cls-1" d="M284.72,60.92c2.85-.18,3.62-2,3.61-4.49C293,61.35,295,67.48,296.16,74l-3,2.76c-1.14-.68-1.13-2.14-2-3Z"/><path class="cls-1" d="M95.29,193.65l2,1a1.24,1.24,0,0,1,0,1.92c-1.5,1.33.08,2.73-.09,4.09a3.21,3.21,0,0,1-3,2.55,4.4,4.4,0,0,1-2.42-1.14c-1.57-1.58-3.39-1.3-5.26-.72-2.19.43-3.73,2.2-5.8,2.87a3.33,3.33,0,0,1-1.33-.12,2.15,2.15,0,0,1-1.21-1.51c.2-3.6,3.21-5,5.74-5.43,2.14-.39,4.07-1.44,6.23-1.57C91.9,195,93,192.84,95.29,193.65Z"/><path class="cls-1" d="M196.38,261a2.63,2.63,0,0,1-2.16,1.46c-1.67-.7-3.32-.28-5,.13a6,6,0,0,1-3.94-4c.41-2.15-2.26-5.26,1.93-6.24,2.46,2,4.84,2.37,7.17-.26a3.13,3.13,0,0,1,3.5-1c1.46.86,2.24,2,1.4,3.71a.55.55,0,0,1-.2.85C196.53,256.58,197.43,259.28,196.38,261Z"/><path class="cls-1" d="M214.24,39.67,200.3,48.91c-2.08-2.65,2-4.62.79-7.18,1.51-2.8,4.25-3.91,7-5C213.67,34.82,213.67,34.82,214.24,39.67Z"/><path class="cls-1" d="M308.3,105.76a26,26,0,0,1-5.85-14.41,15.61,15.61,0,0,1,9.37,7.59C313.23,101.52,310.71,104.08,308.3,105.76Z"/><path class="cls-1" d="M33.31,47.54a49.74,49.74,0,0,1,13-8.88c1.68.85,2.85,2,2.5,4.09-3.06,3.75-7.13,6-11.49,7.93a4.9,4.9,0,0,1-3.06-.44C33.41,49.52,32.66,48.77,33.31,47.54Z"/><path class="cls-1" d="M274.35,122.37c-.18,1.29,0,2.71-1.43,3.49a1.44,1.44,0,0,1-2.39.7c-2.78-2.28-6.28-3.69-8.31-6.87l-1.18-2a6.8,6.8,0,0,1,3.35-2.42C268.07,117.14,272.24,118.31,274.35,122.37Z"/><path class="cls-1" d="M135.93,245.77c-2.43-2.52-5.94-2.65-8.89-4,.19-.48.58-.83.78-1.29-.31-.67-1-1.19-.75-2A2.85,2.85,0,0,1,128.5,237c1.66-.59,3.25.11,4.87.26,1.94.43,3.59-.92,5.46-.91a2,2,0,0,1,1.12,1.85,32.1,32.1,0,0,0,0,7.2C138.85,248,137.34,246.34,135.93,245.77Z"/><path class="cls-1" d="M248.21,33.73a1.84,1.84,0,0,1,2,2c-5.95-1.33-12-1.23-18-1a1.44,1.44,0,0,1,.08-1.23c.94-1.2,1.62-2.57,2.56-3.79a3.42,3.42,0,0,1,1.2-.69c3.55-.74,7,.43,10.54.5C249.24,30.07,246.36,32.79,248.21,33.73Z"/><path class="cls-1" d="M251.28,152.52c-.41,1.23-.83,2.47-1.24,3.71a35.69,35.69,0,0,1-11-7.1c-.72-1.45-1.11-2.88.21-4.23C244.71,145.15,247.58,149.49,251.28,152.52Z"/><path class="cls-1" d="M247.25,29.82c-4,1-8-.7-12.06,0-1.59.93-3.48.08-5.12.75-.64.23.4.68,0,.12-.12-.2,0-.34.37-.32,1.59,0,3.23-.5,4.75.41-.73,1.28-1,3-3,3h-.67a20.94,20.94,0,0,0-6.63.85,5.51,5.51,0,0,1-3.45-.24c-1.15-.52-1.53-1.73-2.29-2.6,4.22-2.44,8.85-3,13.6-3.13a42.71,42.71,0,0,1,11.95,0c1.59,0,3.39-.82,4.56,1l-.39.47A1.37,1.37,0,0,1,247.25,29.82Z"/><path class="cls-1" d="M75.11,222.76c-2.88-.7-2.19-3.23-2.65-5.17a10.48,10.48,0,0,0,0-5.9c.87-3.37.65-7.33,4.83-8.89a2.62,2.62,0,0,0,1.78.66,1.27,1.27,0,0,1,.4.4c1.36,3.16-.57,5.41-2.12,7.76-1.91,2-.59,4.34-.5,6.55a4.87,4.87,0,0,1-.71,3.84A2.07,2.07,0,0,1,75.11,222.76Z"/><path class="cls-1" d="M19.2,57.37a30.44,30.44,0,0,1,7.17-5.44c1.39.36,3.14-.68,4.2,1a11,11,0,0,1,.2,3.24,5.48,5.48,0,0,1-2.32,3.19c-2,1.06-3.53,2.88-5.73,3.64a2.09,2.09,0,0,1-1.62-1.13C22.31,59.6,19,60.2,19,58.69A4.25,4.25,0,0,1,19.2,57.37Z"/><path class="cls-1" d="M248.22,161.67l-3.81,5c-.64-1.62-2.82-2.06-3-4a1.64,1.64,0,0,0,.35-.81l.26-.34a4.74,4.74,0,0,1-.84.23,13.24,13.24,0,0,1-6.64-4.14,1.84,1.84,0,0,1,1-1.52c1.19-.57,2.49-.3,3.73-.5C243,156.45,244.83,160.23,248.22,161.67Z"/><path class="cls-1" d="M100.09,203.68c2.35,3.66,2.14,8.2,4.1,12-.1.41-.21.81-.31,1.21.1,1.6-1.2,2.71-1.43,4.19l-1.85.85a1.76,1.76,0,0,1-1.09-.62,8.87,8.87,0,0,1-2-4.06c-.3-2.87-.55-5.75.7-8.49C99.6,207.34,96.18,204.16,100.09,203.68Z"/><path class="cls-1" d="M259.34,135.64l-1.13,1.05a4.48,4.48,0,0,1-2.93,1.43,2.14,2.14,0,0,1-2.06-1.43c-1.26-1-2.58-1.94-3.76-3-1-.87-3.75-1.09-1.4-3.39,1.35-1.32,1.93-3.76,4.68-.89C254.78,131.53,258.1,132.49,259.34,135.64Z"/><path class="cls-1" d="M220.2,191.65c1.39,1,1.86,3.28,4.18,3-3.3,3.17-5.23,7.79-10,9.43-2-1,.46-3.32-1.24-4.44C214.91,196.45,217.9,194.35,220.2,191.65Z"/><path class="cls-1" d="M272,114.79c-1.72-1.23-3.43-2.46-5.16-3.67-2.18-1.52-2.54-3.44-.92-5.49,1.93-2.43,2.54.83,3.83,1,2.57.37,2.28,3.5,4.39,4.23C274.45,112.72,275,114.71,272,114.79Z"/><path class="cls-1" d="M143.65,215.51c3.74,4,3.19,8.49,1.61,13.12-1.56,1.11-3.1,2.09-4.55-.15-.52-1.49-.62-2.9.8-4,.53-.15.79.17,1.12.52.17.18.08-.24.06-.3-.59-1.79-.87-3.7-2-5.29a4.37,4.37,0,0,1-.19-1.48C140.94,216.34,141.49,214.87,143.65,215.51Z"/><path class="cls-1" d="M219.18,31.77a1.84,1.84,0,0,1,2,2c.59,1.49-.82,1.79-1.5,2.52s-2,.72-2.35,2l-3.14,1.42c-.56-4.11-3.48-3.31-6.17-3C211,33.36,215.27,33,219.18,31.77Z"/><path class="cls-1" d="M202.08,212.19c.43-1.37.41-3,2.19-3.54,2.43-1.24,3.89-3.86,6.64-4.66a1.81,1.81,0,0,1,1.8.87c-1.75,4.42-5.25,7.51-8.29,10.94l-.7-.19a3.5,3.5,0,0,1-1.93-2A2.13,2.13,0,0,1,202.08,212.19Z"/><path class="cls-1" d="M48.33,42.54c0-1.64-2.24-2.12-2-3.88,2.13-2.68,4.55-5,8-5.79-1.33,1.89-1.2,3.46,1,4.57C54.47,41.16,51.9,42.55,48.33,42.54Z"/><path class="cls-1" d="M277.32,99.68l.86,1.23c.55,1.83.47,3.53-1,4.93a9.78,9.78,0,0,1-7.29-4.08c-.35-1.1-.71-2.2.7-2.87a4.74,4.74,0,0,0,.65-.16,6.81,6.81,0,0,1,3.9,0Z"/><path class="cls-1" d="M115.44,223.67a8.21,8.21,0,0,1,1.6-5.13,2.13,2.13,0,0,1,2.37-.14,4.51,4.51,0,0,1,.82,3.91c-1.07,3.29-.47,6.66-.4,10-.45,1.24-.73,2.66-2.59,2.33a6.1,6.1,0,0,1-1.77-4.08A14.14,14.14,0,0,0,115.44,223.67Z"/><path class="cls-1" d="M248.22,143.72c-2.06.11-3.28-1.44-4.44-2.64s-.95-3.13.05-4.53c1.6-2.23,2.08.44,3.12.74a10.81,10.81,0,0,1,5.1,3.45A7.22,7.22,0,0,1,248.22,143.72Z"/><path class="cls-1" d="M187.18,252.62c-3.14,1.2.69,4.58-1.87,6-1.9-1.56-2.35-3.82-2.87-6,.91-4-1.73-8.27,1-12.09,2.09,0,2.46,1.48,2.6,3.12.33,1.64-1.88,3.34.11,5C187.36,249.71,188,251,187.18,252.62Z"/><path class="cls-1" d="M117.24,234.65c.67-.68,1.33-1.36,2-2a3.55,3.55,0,0,1,2.4.65c1.09.91,1.92,2.1,3,3,.77.89,2,1.33,2.61,2.37.06,1.27,2.51.14,2,2-1.53,1-3.33.07-4.91.69C121,240.13,119.36,237.14,117.24,234.65Z"/><path class="cls-1" d="M182.41,217.26c.91,2.88-1.62,3.8-3,5.36-1.34-2-4-3.15-4.32-5.9a4.26,4.26,0,0,1,3.26-2.2C179.35,215.92,181.88,215.09,182.41,217.26Z"/><path class="cls-1" d="M141.39,228.63c1.29,1,2.58,0,3.87,0a15.14,15.14,0,0,1-4.26,8c-.3.8-.62,1.57-1.72,1l-1-1a2.75,2.75,0,0,1-.93-2C137.71,231.94,138.79,229.77,141.39,228.63Z"/><path class="cls-1" d="M90.45,229.67c-4,3.38-7.53,1.27-11-1,1.13-1,1-3,2.66-3.6,3.15.4,6.39-.39,9.47.72.51,4.26-3.65,2.2-5.11,3.79-.65.15.3.67,0,.1-.13-.21,0-.35.32-.38C88,229.14,89.33,228.43,90.45,229.67Z"/><path class="cls-1" d="M100.6,221.92a12.43,12.43,0,0,1-6.29,6.44A4.75,4.75,0,0,1,92.17,226a2.15,2.15,0,0,1-.16-1.3c1.24-2.17,2.6-4.24,5-5.38a4.37,4.37,0,0,1,3.25,2.23C100.35,221.65,100.48,221.78,100.6,221.92Z"/><path class="cls-1" d="M135.93,245.77c1.09-.55,2.29,1,3.35-.18.78-.54.21-1.78,1.16-2.24L143,250.7c-.44,1.38-.59,3.2-2.83,1.9C137.94,250.83,137.17,248.15,135.93,245.77Z"/><path class="cls-1" d="M226,173.89c-2.88.06-4.67-1.63-5.62-4-.4-.94.5-1.94,1.45-2.3,2.93-1.12,4.06,1.21,5.42,3,1,1.45.2,2.3-1,3.06Z"/><path class="cls-1" d="M134.16,144.26c.07-2.71-1-5.56,1-8,2.42,2.76,1.19,6.13,1.57,9.23-.27,1.64,1.21,3,.76,4.67a13.16,13.16,0,0,1-2.13,6.68c-2.18-.86-2-2.77-2-4.58C133.94,149.6,133.54,146.88,134.16,144.26Z"/><path class="cls-1" d="M199.31,254.79a3.27,3.27,0,0,0-2.32-3.28c-2.53-1.89-2.11-4.44-1.56-7,.42-1,1.08-1.4,2.13-.93.58.29.79,1.34,1.76.9C201.15,247.91,200.57,251.35,199.31,254.79Z"/><path class="cls-1" d="M133.26,189.61v5.09c-1.68-3.71-4.06-.95-5.86-2a9.85,9.85,0,0,1-1.11-6c-.36-.26-.45-1.05-.22-1.24.89-1.89,2-2.95,3-.22.63,1.64.62,3.58,3,3.73A3.7,3.7,0,0,1,133.26,189.61Z"/><path class="cls-1" d="M19.2,57.37l.17,1.41c-.47,1.74.85,2.29,2,3L22.43,63c-.55,2.77-2.42,3.79-5.05,3.8l-2-3c-.75-2,1.21-2.81,1.94-4.16A2.73,2.73,0,0,1,19.2,57.37Z"/><path class="cls-1" d="M17.29,59.59c.29,1.82-1.35,2.75-1.94,4.16C13.78,65.91,12.77,69,9,67.59,11.45,64.59,13.09,60.77,17.29,59.59Z"/><path class="cls-1" d="M93.31,134.69c1-1.63,1-3.49,1.12-5.32,2.26-.65,1.64,3.13,3.88,2.53,1.78,2.69,3,5.21-1.69,6.12C94.47,138,93.56,136.64,93.31,134.69Z"/><path class="cls-1" d="M201.09,41.73c3,2.76-1.12,4.73-.79,7.18l-.91.9c-2.29.18-1.86-2.55-3.41-3.17C196.58,43.85,200.09,44.11,201.09,41.73Z"/><path class="cls-1" d="M96.29,137.72c3.45-1,2.16-3.6,2-5.82,1.67.62,3.21,1.36,3.11,3.54s.14,4.33-1.12,6.25c-2.46.56-2.55-2.22-4.1-2.93l0,0A.59.59,0,0,1,96.29,137.72Z"/><path class="cls-1" d="M221.29,178.54l-1,2.12a1.4,1.4,0,0,1-2,0c-1.07-.73-2.86-.46-3.13-2.28.07-1.59.18-3.94,1.89-3.73S221.45,175.53,221.29,178.54Z"/><path class="cls-1" d="M264.29,126.7a.37.37,0,0,1,.07.61c1,1.77.25,3.07-1.16,4.17a22.5,22.5,0,0,1-6.33-4.63c.52-2,1.55-3.24,3.86-2.62C262,125,262.93,126.13,264.29,126.7Z"/><path class="cls-1" d="M281.2,114.87c0,.28,0,.56,0,.84a8.47,8.47,0,0,0-3.07,3.22l-4-2.9c-1.1-2.36-.1-3.7,2.16-4.43C278.58,111.65,278.54,115.3,281.2,114.87Z"/><path class="cls-1" d="M281.14,90.89c0,.88-.09,1.78,1.06,2a1,1,0,0,1,0,1.16c-.89.8-1.45,2.24-3.08,1.63-.6-1.65-5.16-.19-3-4.23C277.81,88.36,279.31,89.62,281.14,90.89Z"/><path class="cls-1" d="M100.09,203.68c-2.94,1.3,1,3.83-1,5.3-4-.18-4.38-3.34-5-6.25l3.11-2.06C98.42,201.43,99.9,201.94,100.09,203.68Z"/><path class="cls-1" d="M183.13,54.08c1.06-1.91,2.23-.92,3,.11,1.93,2.66,4.49,3.21,7.5,2.7C189.48,63.48,186.6,57.67,183.13,54.08Z"/><path class="cls-1" d="M148.59,117.85l-3.21-1.14c1.4-2.21,1.23-5.66,4.83-6.14a1.19,1.19,0,0,1,.21,1.65C151.17,114.54,151.27,116.64,148.59,117.85Z"/><path class="cls-1" d="M265.24,41.54c.77-1.54,1.88-2.95,2-4.77,1.23,1.26,4.28-.21,4.31,2.86-1.68,1-2.13,2.67-2.43,4.43Z"/><path class="cls-1" d="M184.24,240.61c-2.52,3.7.45,8.21-1.8,11.94a22.2,22.2,0,0,1,.1-13.91,2.1,2.1,0,0,1,1.88,1.3Z"/><path class="cls-1" d="M277.16,105.84c0-1.71-.06-3.44,1-4.93,1.87.29,2.53,2.18,4,3,.29,2.76.24,5.19-3.72,3.8Z"/><path class="cls-1" d="M198.2,244.58l-1.91-1a2.4,2.4,0,0,1-.81-1c-.42-1.45-.55-3-1.46-4.27a4.37,4.37,0,0,1-.42-1.28,2.6,2.6,0,0,1,1.74-2.66c2.7.74,2.92,3.2,3.69,5.28C198.22,241.23,199.38,243.11,198.2,244.58Z"/><path class="cls-1" d="M261.22,124.71c-2-.49-3,1.27-4.35,2.14l-.68-1c-1.85-1.17-1.81-2.79-1.11-4.57,3.27-1.87,4.15,1.68,6.14,2.71C261.68,124.17,261.53,124.63,261.22,124.71Z"/><path class="cls-1" d="M136.29,136.7c4,.17,2.37,4.1,4,5.88-.27.35-.54.7-.82,1-1.68,2.06-3.26,2.75-3.56-.75C135.7,140.85,135.3,138.69,136.29,136.7Z"/><path class="cls-1" d="M150.42,112.22l-.21-1.65c-.63-3.82,1.9-6.44,3.73-9.35C154.05,105.28,154,109.29,150.42,112.22Z"/><path class="cls-1" d="M248.22,143.72c1-2.05,2.49-3.23,4.93-3-.14,1.25.82,1.94,1.42,2.81a2.13,2.13,0,0,0-1.35,2.15,2.36,2.36,0,0,1-1,.93C249.52,147.53,250.18,143.82,248.22,143.72Z"/><path class="cls-1" d="M128.22,115.54l2,5.19a5.53,5.53,0,0,0,0,5c-1.74,2-1.9-.82-2.94-1-1.19-1.5.07-3.43-.89-5C127,118.34,126.65,116.53,128.22,115.54Z"/><path class="cls-1" d="M33.31,47.54l1,2.22a3,3,0,0,1,.79,2.85A2.46,2.46,0,0,1,33,54.48a3.19,3.19,0,0,1-1.36-.25c-.31-1.69-1.95-2.73-2.2-4.46A4,4,0,0,1,33.31,47.54Z"/><path class="cls-1" d="M136.29,136.7c0,1.8,0,3.6,0,5.4,0,2.81,1.45,2.37,3.15,1.53,1,1.77.1,3.13-.95,4.46a18.34,18.34,0,0,1-3.17-1.41l-.18-10.46,1.09-.65Z"/><path class="cls-1" d="M235.22,166.67a2.19,2.19,0,0,0-1,2.05l-1.74-.17c-1.37-.58-2.6-1.29-2.58-3.05,0-1.46.1-2.92,1.39-3.95l1.95,1.13C234.35,163.79,236.61,164.32,235.22,166.67Z"/><path class="cls-1" d="M119.25,218.63l-2.21-.09a5.57,5.57,0,0,1,3-4c1.24-.51,2.47-1.1,3.84-.45,1.53,3.3-1.08,4-3.16,5.08A2,2,0,0,1,119.25,218.63Z"/><path class="cls-1" d="M166.28,41.77c2.91-.46,6.37-4,8.22,1.46-1.09,2-3.91-3.72-4.4,1l-3.83-1.66C165.77,42.33,165.94,41.86,166.28,41.77Z"/><path class="cls-1" d="M116.24,57.73l3,1.76c-2.28.84-4.32,2.35-6.86,2.45a1.44,1.44,0,0,1-1-1.94C112.67,58.61,114.5,58.27,116.24,57.73Z"/><path class="cls-1" d="M278.45,107.72c3,.49,2.62-2.4,3.72-3.8,1.15-.17,1.61.71,2.19,1.41-1.3,1.58-.56,4-2.26,5.43Z"/><path class="cls-1" d="M235.21,156.75l-.71.84c-1.75-.86-4.41-1.28-2.69-4.18.67-1.13,1.34-4,3.61-1.23A5.9,5.9,0,0,1,235.21,156.75Z"/><path class="cls-1" d="M130.22,104.55c.41,3.13,2.91,6.47-.93,9.16C127.33,110.43,129.25,107.54,130.22,104.55Z"/><path class="cls-1" d="M219.25,35.74l2-2h4a1.09,1.09,0,0,1,1.2-.24c1,.36,2.29.18,3,1.33l-7.2,1.78C221.36,35.84,220,36.82,219.25,35.74Z"/><path class="cls-1" d="M233.09,200c1.91-2.84,5,.62,7.11-1.37.69,1.29-.5,1.94-1,2.83C236.88,202.27,234.72,202.25,233.09,200Z"/><path class="cls-1" d="M231.28,161.55c-.22,1.42.46,3.11-1.17,4.13h-.48l-.36.31c-1.34-.34-2.68-.69-3.05-2.31a6,6,0,0,1,3.1-3.29C230.21,160.38,231.24,160.12,231.28,161.55Z"/><path class="cls-1" d="M166.47,34.68l-16.51,0A53.45,53.45,0,0,1,166.47,34.68Z"/><path class="cls-1" d="M78.14,226.7c-2.39-.24-4-1.09-3-3.94l.44-.2a2.52,2.52,0,0,1,2.94-.32,3.39,3.39,0,0,1,1.56,2.67C79.84,226,79.75,227.14,78.14,226.7Z"/><path class="cls-1" d="M71.39,12.77c1.13-.58,2-.66,1.94,1C73,15.71,75.21,14.91,75.7,16a1.7,1.7,0,0,1-1.08,2.24,1.58,1.58,0,0,1-1.31-.41c-.77-1.29-2.64-1.51-3-3.16Z"/><path class="cls-1" d="M263.2,131.48c.39-1.39.78-2.78,1.16-4.17a4.16,4.16,0,0,1,2.94,2.09,2.8,2.8,0,0,1,.25,3.12c-1.63,1.14-2.63-.94-4.18-.69Z"/><path class="cls-1" d="M196.38,261a7.26,7.26,0,0,0,.11-1.9c-.81-3.63-.83-3.62,2.62-3.46A6,6,0,0,1,196.38,261Z"/><path class="cls-1" d="M178.31,214.52a3.34,3.34,0,0,1-3.26,2.2l-.85-.93c.11-1.86,1-3,2.93-3.14Z"/><path class="cls-1" d="M291.37,82.34c-1.11,3-3-2-4.17.39a3.81,3.81,0,0,1-1.75.57,4.16,4.16,0,0,1-1.79,0,1.1,1.1,0,0,1-.74-.81C285.67,79.11,288.51,80.11,291.37,82.34Z"/><path class="cls-1" d="M210.25,204.63c-1.79,1.65-2.88,4.33-6,4a15,15,0,0,1,4.73-5.13C210.07,203.15,210.35,203.68,210.25,204.63Z"/><path class="cls-1" d="M235.21,156.75c-1.72-1.61.45-3,.21-4.57l3.84,3.39C238.26,157.17,236.6,156.49,235.21,156.75Z"/><path class="cls-1" d="M1.38,89.68c-.29,1.68,2.1,3.33.07,5-1.86-3.53-1.63-7.23-.95-11h.86A8.25,8.25,0,0,1,1.38,89.68Z"/><path class="cls-1" d="M134.28,152.69a6.86,6.86,0,0,0,1.06,4.11c-1,1.34.79,4.75-3,4,1-2.56-.1-5.29.59-7.88A.87.87,0,0,1,134.28,152.69Z"/><path class="cls-1" d="M119.18,53c.29-1.06-.58-2.91,1.69-2.66,3,.33.22,2.15.7,3.35,1.21,3-1.43.45-2.07,1C119.4,54.18,119.29,53.6,119.18,53Z"/><path class="cls-1" d="M90.45,229.67H86.18c1.24-2.33,4.78-1,5.11-3.86l.21-.45H92a.9.9,0,0,1,.43.34,3.26,3.26,0,0,1-.12,3.87Z"/><path class="cls-1" d="M96.2,138.76c2.25-.26,2.34,2.51,4.1,2.93,0,1.11,2.28,1.55.88,3.05C99.07,143.12,96.7,141.72,96.2,138.76Z"/><path class="cls-1" d="M210.25,204.63,209,203.52c1.17-1.31,1.74-3.37,4.07-3.21,1.14,1.47.82,3,.15,4.53L213,205l-.26-.17Z"/><path class="cls-1" d="M85.29,6.78c-3.06-.15-4.74-1.73-5-4.8C82.44,3.1,84.37,4.42,85.29,6.78Z"/><path class="cls-1" d="M201.2,218.63a2,2,0,0,1-2-1c-.85-1.29-.24-2.1.9-2.73a4.54,4.54,0,0,1,4.05.7l.24.19C203.92,217.4,202.51,218,201.2,218.63Z"/><path class="cls-1" d="M244.73,28.63H232.79A21.09,21.09,0,0,1,244.73,28.63Z"/><path class="cls-1" d="M124.78,214.83l-4.76-.29c.62-1.42,1.93-2.12,3.1-3a3.51,3.51,0,0,1,2.21,2.19A1,1,0,0,1,124.78,214.83Z"/><path class="cls-1" d="M214.19,179.55c0,2.07,0,4.15,0,6.22C211.13,183.7,211,181.62,214.19,179.55Z"/><path class="cls-1" d="M143.65,215.51a3.09,3.09,0,0,0-2.37,3.1c-2.63-.23-2.73-2-2.44-4,.86-1.21,1.85-2,3.36-1Z"/><path class="cls-1" d="M116.35,178.81c-.54-1.36-1-2.72-.1-4.12C119.63,175.22,120.14,178.45,116.35,178.81Z"/><path class="cls-1" d="M229.32,160.39c-.72,1.4-1,3.15-3.1,3.29-1.81-1.08-.69-2.05.17-3S228.15,158.79,229.32,160.39Z"/><path class="cls-1" d="M264.39,115.3a3.33,3.33,0,0,1-3.35,2.42c-.8-1.13-1.56-2.32-.14-3.47C262.49,112.94,263.2,115,264.39,115.3Z"/><path class="cls-1" d="M29.45,49.77c.64,1.31,3.1,1.77,1.89,4a.76.76,0,0,1-1,0c-.87-1.61-3-.4-4-1.81C26.88,50.47,28.75,51,29.45,49.77Z"/><path class="cls-1" d="M287.37,54.69c-3-.47-4.79-2.14-5-5.26C284.31,50.89,286.81,51.86,287.37,54.69Z"/><path class="cls-1" d="M140.44,243.35c-.39.75-.77,1.5-1.16,2.24v-8l1.72-1Q140.72,240,140.44,243.35Z"/><path class="cls-1" d="M277.1,51c.75-1.47,1.71-1.13,2.6-.21s2.17,1.72.41,3A3.79,3.79,0,0,1,277.1,51Z"/><path class="cls-1" d="M78.14,226.7a2.55,2.55,0,0,0,1.28-2.34,1.63,1.63,0,0,1,1.89,1.29c1.32,2.22.59,3.14-1.87,3Z"/><path class="cls-1" d="M84.35,130.45c3.33-3.23,3.94-.11,4.93,2.11C87.16,133,86.16,130.77,84.35,130.45Z"/><path class="cls-1" d="M130.27,176.67l.75-.95c.71,2.58,1.56,5.14,1.49,7.87a1.25,1.25,0,0,1-1.18.32c-1-.71-1.15-1.83-1.57-2.83a7.24,7.24,0,0,1-.35-1.29A3.33,3.33,0,0,1,130.27,176.67Z"/><path class="cls-1" d="M72.06,120.81c3-1.23,4.34-.12,4.21,3C74.2,123.75,73.09,122.33,72.06,120.81Z"/><path class="cls-1" d="M132.4,104.12c-.54-2.09.63-4.44-1-6.37.2-.58.25-1.5.64-1.69,1.3-.61,1.22.55,1.15,1.26C133,99.59,132.68,101.86,132.4,104.12Z"/><path class="cls-1" d="M276.24,111.6c.05,1.85-3.14,2.12-2.16,4.43-.78-.26-1.73-.22-2-1.24,1.53-.86,1.14-2.77,2.14-3.91C275,110.7,275.86,110.46,276.24,111.6Z"/><path class="cls-1" d="M200.31,215.6a2.14,2.14,0,0,0-1.08,2l-1.42-.16c-.36-3.2,1.75-4.42,4.27-5.29l.17,1.47C202.87,215.57,200.75,214.75,200.31,215.6Z"/><path class="cls-1" d="M161.26,39.74l1,1c-1.1.82-2.25.48-3.4.18h-.22c-1.32-.82-3.28.69-4.31-1.18A11.48,11.48,0,0,1,161.26,39.74Z"/><path class="cls-1" d="M142.2,213.65l-3.06,1c-.75.12-1.08-.17-.89-1,.35-1.07.69-2.15,1-3.23A5.73,5.73,0,0,1,142.2,213.65Z"/><path class="cls-1" d="M291.2,73.74a3.08,3.08,0,0,1,2,3c-.16,1.34.42,2.85-.83,4Q291.78,77.22,291.2,73.74Z"/><path class="cls-1" d="M282.28,87.29l-1,.31c-1.08-2.23-.42-3.89,1.66-5.09l.36.23a1.37,1.37,0,0,1-.07,2Z"/><path class="cls-1" d="M239.25,144.9l-.21,4.23c-1.14-.42-2.78-.69-2.6-2.16A2.55,2.55,0,0,1,239.25,144.9Z"/><path class="cls-1" d="M135.3,202.64c1-2.67-2.47-5.26-.15-7.95.42,2.23.83,4.45,1.25,6.68C136.93,202.58,136.27,202.74,135.3,202.64Z"/><path class="cls-1" d="M195.34,234.41l-1.63,3.45a1.75,1.75,0,0,1-1.46-1.36c1.07-1.5,1-3.24,1-5C194.92,231.81,194.74,233.39,195.34,234.41Z"/><path class="cls-1" d="M273,47.22c.6-1.48,1.47-1.36,2.59-.51,1.32,1,1.1,2.13.43,3.35Z"/><path class="cls-1" d="M95.29,193.65c-1.68.73-3.17,1.95-5.13,1.95q2-2.07,4.06-4.16Z"/><path class="cls-1" d="M96.29,137.72l-.06,1.08c-2.54-.29-3.78-2.31-5.28-4l2.36-.13Z"/><path class="cls-1" d="M279.16,95.73c1.08-.57,1.48-2.17,3-2,1.21,1.67.92,3-1,3.86l-.48,0-.48,0C280.1,96.82,278.8,96.78,279.16,95.73Z"/><path class="cls-1" d="M126.4,185.57c0,.36-.08.72-.11,1.08-1.45-1.74-1-4.07-1.88-6l.9-1c1-.15,1.45.46,1.79,1.25C127.56,182.54,126.88,184,126.4,185.57Z"/><path class="cls-1" d="M5.29,72.61c.87,1.36,1.24,2.86,0,4.06-.93.89-1.07-.84-1.82-.91A5.71,5.71,0,0,1,5.29,72.61Z"/><path class="cls-1" d="M42.33,100.74a11.15,11.15,0,0,1,6.08,1.3c.14.32-.07.59-.33.82l-5.75-1.25C41.77,101.34,42,100.83,42.33,100.74Z"/><path class="cls-1" d="M130.35,143.26c.23-2.85-1-5.84.8-8.54C131.14,137.59,131.34,140.48,130.35,143.26Z"/><path class="cls-1" d="M131.35,123.28c.23-2.85-1-5.84.81-8.55C132.24,117.61,132.37,120.5,131.35,123.28Z"/><path class="cls-1" d="M144.53,130.77c-.89.07-2.43,1-2.51-.29-.13-2.16,1.94-1.64,3.32-1.78A1.49,1.49,0,0,1,144.53,130.77Z"/><path class="cls-1" d="M144.22,120.56c.17,2.3-.3,4.09-3.15,4.06C141.9,123.09,142,121,144.22,120.56Z"/><path class="cls-1" d="M111.34,60l1,1.94a3.36,3.36,0,0,1-3.9.82C108.54,60.83,110.11,60.6,111.34,60Z"/><path class="cls-1" d="M268.1,161.67c-3-1.73-3.08-3.39.11-5a3.51,3.51,0,0,0,.14,4.27A.59.59,0,0,1,268.1,161.67Z"/><path class="cls-1" d="M135.32,146.68c1.7-1,2.61-.17,3.17,1.41.07.88,0,1.68-1,2C137,148.8,135.15,148.38,135.32,146.68Z"/><path class="cls-1" d="M158.83,40.92l3.4-.18c1.39.18,3-.45,4.05,1,0,.27,0,.54,0,.8Z"/><path class="cls-1" d="M133.45,152.7l-.24-3q.47-2.7.95-5.41l.12,8.43Z"/><path class="cls-1" d="M226.3,173.64c.32-1,.65-2,1-3.06l2,1.24c.66.44,1.59.74,1,1.85Z"/><path class="cls-1" d="M275.12,98.75a3.14,3.14,0,0,1-3.9,0C272.55,95,273.83,97.66,275.12,98.75Z"/><path class="cls-1" d="M219.25,35.74c1.05.07,2.2-.19,2.94.89l-4.81,1.62A2.81,2.81,0,0,1,219.25,35.74Z"/><path class="cls-1" d="M114.18,37.72c4,1,0,2.15,0,3.23C113.44,39.88,111.6,38.82,114.18,37.72Z"/><path class="cls-1" d="M276.18,42.76c-2.23.37-3.16-1.11-3.95-2.78C274.2,40,275.72,40.62,276.18,42.76Z"/><path class="cls-1" d="M133.1,166.67a4.06,4.06,0,0,1-3.76-4.14C130.8,163.72,132.68,164.53,133.1,166.67Z"/><path class="cls-1" d="M235.22,166.67c.19-1.75-1.43-2.6-2-4,2.09,0,3.11,1.44,4.08,3Z"/><path class="cls-1" d="M135.3,202.64l1.1-1.27a5.6,5.6,0,0,1,.91,4.2c-.34.25-.09,1.74-.85.77S135.66,203.9,135.3,202.64Z"/><path class="cls-1" d="M213.22,204.84l-.15-4.53a.44.44,0,0,1,.1-.66c3.65.58.3,3.1,1.24,4.44C214.37,204.91,214,205.11,213.22,204.84Z"/><path class="cls-1" d="M115.44,223.67a6.59,6.59,0,0,1,0,6.9A19.51,19.51,0,0,1,115.44,223.67Z"/><path class="cls-1" d="M255.08,121.23l1.11,4.57C251.91,125.22,252.67,123.43,255.08,121.23Z"/><path class="cls-1" d="M302.46,91.34c-.81.4-1.58,1.41-2.55.39a1.91,1.91,0,0,1,.07-3Z"/><path class="cls-1" d="M102.45,221.07c.55-1.74-.65-3.81,1-5.36a2.59,2.59,0,0,1,.88,3.84Z"/><path class="cls-1" d="M76.39,100.73c-2.41-.2-2.63-2.14-3.1-3.88C75.08,97.53,76.38,98.62,76.39,100.73Z"/><path class="cls-1" d="M3.24,98c.42-.86.94-2.31,2-1.57,1.55,1.13.1,2.25-.68,3.24C4.09,99.15,3.67,98.59,3.24,98Z"/><path class="cls-1" d="M17.37,107.49a1.9,1.9,0,0,0,0-.63,7.17,7.17,0,0,1,6-.16l1,.79A15,15,0,0,1,17.37,107.49Z"/><path class="cls-1" d="M131.34,183.65l1.17-.06c1.46,1.73.77,4,.75,6l-.46,0h-.47a3.08,3.08,0,0,1-1.09-1.8C131.1,186.43,130.51,185,131.34,183.65Z"/><path class="cls-1" d="M239.23,201.49c.33-.94.65-1.88,1-2.83l1.86-1A3.35,3.35,0,0,1,239.23,201.49Z"/><path class="cls-1" d="M250.22,31.77h-1a1.26,1.26,0,0,1,0-1.92l.1-.17c1.7.51,3.75-1,5.21.88l-.37.21C253,31.93,251.31,30.6,250.22,31.77Z"/><path class="cls-1" d="M229.39,34.85c-1-.41-2.39.15-3.13-1.08a8.05,8.05,0,0,1,6,0h0v.88Z"/><path class="cls-1" d="M137.45,37.71c-.88-.86-3.81-.27-2.11-3C136.94,35.1,137.39,36.27,137.45,37.71Z"/><path class="cls-1" d="M261.22,124.71a5,5,0,0,0,0-.77,1.57,1.57,0,0,1,.91.06c.45,1.12,2.24,1.17,2.16,2.7C262.84,126.7,261.31,126.82,261.22,124.71Z"/><path class="cls-1" d="M126.43,119.73c1.5,1.44.6,3.31.89,5-.68.88-.92.13-1.23-.34C126.2,122.82,126.31,121.27,126.43,119.73Z"/><path class="cls-1" d="M278.12,118.93c.14-1.91,1-3.13,3.07-3.22-.72,1.47-2.19,2.56-2.14,4.39Z"/><path class="cls-1" d="M92.31,229.57l.12-3.87a2.85,2.85,0,0,1,1.88,2.66Z"/><path class="cls-1" d="M72.5,211.69a4.89,4.89,0,0,1,0,5.9Z"/><path class="cls-1" d="M230.25,173.67l-1-1.85c2,0,3.13,1.27,4.07,2.81Z"/><path class="cls-1" d="M42.33,100.74v.87l-5.88.47C38,99.6,40.37,101.16,42.33,100.74Z"/><path class="cls-1" d="M189.25,262.59c1.62-1.49,3.28-1.39,5-.13C192.58,263,190.94,263.64,189.25,262.59Z"/><path class="cls-1" d="M198.2,244.58c.31-1.62-.54-3.44.83-4.89a8.38,8.38,0,0,1,.29,4.78C199,245.15,198.66,245.37,198.2,244.58Z"/><path class="cls-1" d="M298.32,82.48l-.54,1.23c-.19-.29-.53-.58-.55-.89-.05-1.07-.2-2.2.76-3Z"/><path class="cls-1" d="M263.75,131.83a5.45,5.45,0,0,1,3.43.84c.35.18.42.78.2.93a2.35,2.35,0,0,0-.06.65C265.6,134.23,264.75,132.91,263.75,131.83Z"/><path class="cls-1" d="M135.06,177.75c2.09-.07,3.15,1,3.17,3.05A8,8,0,0,1,135.06,177.75Z"/><path class="cls-1" d="M174.38,208.61a2.75,2.75,0,0,1-3.11-2.92C172.87,206.06,173.61,207.34,174.38,208.61Z"/><path class="cls-1" d="M124.36,241.32c1.49-1.22,3.26-.51,4.91-.69L127,241.74Z"/><path class="cls-1" d="M91.45,123.43c-.18.41-.27,1.08-.56,1.19-.64.25-.54-.44-.55-.78,0-1.07-.21-2.19.67-3.06Z"/><path class="cls-1" d="M97.29,196.58v-1.92l3.33-.89A7.13,7.13,0,0,1,97.29,196.58Z"/><path class="cls-1" d="M140.19,252.6c1.53.24,2-1.12,2.83-1.91.36,1.06,1,2.35-.25,3C142,254.08,140.46,254.34,140.19,252.6Z"/><path class="cls-1" d="M104.31,219.55c-.29-1.28-.59-2.56-.88-3.84a3.84,3.84,0,0,0,.76,0C105.37,216.93,106.37,218.2,104.31,219.55Z"/><path class="cls-1" d="M79.11,203.46c-1,.74-1.77,1.1-1.78-.66a1.54,1.54,0,0,1,.86-.2Z"/><path class="cls-1" d="M252.22,146.61l1-.93c.76.5.51.83-.18,1.08h-.42Z"/><path class="cls-1" d="M242.22,161.64l-.85,1a4.13,4.13,0,0,1-.23-.92l.16-.07A.67.67,0,0,1,242.22,161.64Z"/><path class="cls-1" d="M17.15,67.75c-.38,1.48-1.53,2.26-2.72,3-.78-.15-1.94-.19-1.65-1.27a3.56,3.56,0,0,1,3.6-2.73A2.66,2.66,0,0,1,17.15,67.75Z"/><path class="cls-1" d="M11.33,81.67c.25-1.15,1.29-.76,2-1-.17,2.52-.09,5.36-4,3.06C9.94,83,10.72,82.4,11.33,81.67Z"/><path class="cls-1" d="M1.38,89.68c0-2,0-4,0-6A4.48,4.48,0,0,1,1.38,89.68Z"/><path class="cls-1" d="M23.32,106.7l-6,.16C19.3,105.08,21.29,105.25,23.32,106.7Z"/><path class="cls-1" d="M11.33,81.67c0,1.28-.61,2-2,2-.32-1-.65-2-1-3C9.36,81,10,82.3,11.33,81.67Z"/><path class="cls-1" d="M17.15,67.75l-.77-1,1,0A5.26,5.26,0,0,1,17.15,67.75Z"/><path class="cls-1" d="M288.28,96.69a1.68,1.68,0,0,1,.89.34c-.84,1.51-3.22,1.85-3.12,4.08-.29-.45-.58-.89-.86-1.34-.84-.63-1.55-1.36-.81-2.45C285.43,95.78,286.83,96,288.28,96.69Z"/><path class="cls-1" d="M285.19,82.75c.66-1.13,1.34-.09,2,0a5.53,5.53,0,0,1-2,4A3.44,3.44,0,0,1,285.19,82.75Z"/><path class="cls-1" d="M285.19,82.75c0,1.33,0,2.65,0,4l-2-2c0-.66.05-1.32.07-2Z"/><path class="cls-1" d="M288.39,132.88c-2.14-.47-2.64-1.68-1.51-3.93l1.51,3.93Z"/><path class="cls-1" d="M126.32,180.66c-.34-.35-.68-.69-1-1-.21-4.1,2.89-2.66,5-3l0,4C129,181.87,127.65,181.66,126.32,180.66Z"/><path class="cls-1" d="M128.29,138.7c.34-3.36-.8-6.87,1.31-10.08,1.15,3.38-1.12,6.74-.35,10.11Q128.76,139.36,128.29,138.7Z"/><path class="cls-1" d="M128.29,138.7c.32,0,.64,0,1,0v12.76l-1,0Z"/><path class="cls-1" d="M127.15,162.6c-.83-1.86.08-2.83.66-4.3C128.43,159.93,128.56,161.1,127.15,162.6Z"/><path class="cls-1" d="M130.26,125.68a3.36,3.36,0,0,1,0-5Z"/><path class="cls-1" d="M82.33,11.79l2,1c-.19,1.58.69,3.7-2,4C81.47,15.1,80.83,13.43,82.33,11.79Z"/><path class="cls-1" d="M82.33,11.79c0,1.66,0,3.32,0,5l-1.08-1.2A13.1,13.1,0,0,1,81,9.93C82,10.14,82.27,10.88,82.33,11.79Z"/><path class="cls-1" d="M161.26,39.74h-7c2.11-1.89,4.66-.59,7-1C161.27,39.09,161.27,39.42,161.26,39.74Z"/><path class="cls-1" d="M154.2,35.82a4.9,4.9,0,0,1,.06.94h-5.73C150.91,35.37,152.61,36,154.2,35.82Z"/><path class="cls-1" d="M66.9,57.12a3.49,3.49,0,0,1,.12-4C68,54.54,67.16,55.66,66.9,57.12Z"/><path class="cls-1" d="M259.21,139.7c-1.8.14-2.84-1.11-4-2.19.79-1,1.91-.78,3-.82C258.55,137.69,258.88,138.7,259.21,139.7Z"/><path class="cls-1" d="M267.2,138.6c1.64.07,1.6,1,1,2.09-.88-.1-2.08.31-2.46-.78S266.52,138.84,267.2,138.6Z"/><path class="cls-1" d="M267.38,133.6a3,3,0,0,1-.2-.93l.12-3.27a4.59,4.59,0,0,1,3.08,1.91C269.83,132.67,269,133.67,267.38,133.6Z"/><path class="cls-1" d="M129.31,207.65l1.82-2.27c-.1,1.4,1,3.44-1.83,2.28Z"/><path class="cls-1" d="M218.24,180.67h2c.69.58,1.08,1.36,0,1.74C218.85,182.92,218.35,181.91,218.24,180.67Z"/><path class="cls-1" d="M74.3,19.75c-1.59,1.46-.89,3.22-.64,4.92-2.51-2.17-1.25-4.53-.35-6.87h1.06Z"/><path class="cls-1" d="M77,13.78a2.5,2.5,0,0,1-1.6,2c-1.18-.19-3.26.56-2.1-2Z"/><path class="cls-1" d="M249.19,29.84c0,.64,0,1.28,0,1.92a2.05,2.05,0,0,0-1,2c-3.51-.52-.48-2.65-1-3.91Z"/><path class="cls-1" d="M250.22,31.77c1-1.48,2.56-.85,3.91-1C253.51,33.76,251.37,30.86,250.22,31.77Z"/><path class="cls-1" d="M92.29,201.44c-1.9-.93-4-.64-6-.84C88.5,199.52,90.7,198.29,92.29,201.44Z"/><path class="cls-1" d="M36.31,51.66l-2,1.07c0-1,0-2,0-3l3.08,0Z"/><path class="cls-1" d="M132.91,238.46c.9-2.49,3.29-3,5.32-4,0,.71,0,1.42.05,2.13C137.12,239.08,135,238.62,132.91,238.46Z"/><path class="cls-1" d="M124.3,236.77l4,1-1,.9C125.9,238.63,124.43,238.75,124.3,236.77Z"/><path class="cls-1" d="M235.23,30.77h-4.84l0-1h4.85C235.21,30.13,235.23,30.45,235.23,30.77Z"/><path class="cls-1" d="M232.23,33.77c-2.33,0-4.67,0-7,0A5.81,5.81,0,0,1,232.23,33.77Z"/><path class="cls-1" d="M76.38,217.51c.89,1.62,2.06,3.14,2.06,5.13l-2.89-.08c.22-1.45.45-2.9.67-4.35C75.86,217.9,76.06,217.55,76.38,217.51Z"/><path class="cls-1" d="M76.38,217.51a5.88,5.88,0,0,0-.16.7c-1.68-2.06-.84-4.34-.54-6.56a.8.8,0,0,1,.81.26C76.45,213.78,76.42,215.64,76.38,217.51Z"/><path class="cls-1" d="M21.34,61.75c-2.86.48-2.32-1.31-2-3C20.45,59.49,22.56,59.51,21.34,61.75Z"/><path class="cls-1" d="M32.47,53.8l-2,2c-1-.63-1.2-1.31-.12-2.07.33,0,.66,0,1,0Z"/><path class="cls-1" d="M242.22,161.64c-.31,0-.62,0-.92,0C241.59,161.06,241.9,161.11,242.22,161.64Z"/><path class="cls-1" d="M97.16,219.35a2.26,2.26,0,0,1,1-2.15c.4,1.59,2.27,2.46,2.09,4.32C99.07,221,97.78,220.64,97.16,219.35Z"/><path class="cls-1" d="M288.28,96.69c-1.82.23-4.43-.33-3.09,3.08-1.79.1-2.89-1-4-2.21a6.13,6.13,0,0,0,1-3.86v-.76C285.12,92.74,286.09,95.71,288.28,96.69Z"/><path class="cls-1" d="M142.17,224.43c-.19-1.59-.39-3.17-.58-4.75,3,1.23,1.38,3.78,1.45,5.76C143.05,225.71,142.49,224.77,142.17,224.43Z"/><path class="cls-1" d="M200.31,215.6l1.94-1.94a3.07,3.07,0,0,1,1.93,2Z"/><path class="cls-1" d="M119.33,224.73a18.75,18.75,0,0,0,1.68,8.86l-1.77-1c-1.21-3.31-1.79-6.61,0-9.9A1.45,1.45,0,0,1,119.33,224.73Z"/><path class="cls-1" d="M119.33,224.73c0-.67,0-1.34,0-2l0-4.09,1.31.1C120.62,220.83,120.65,222.92,119.33,224.73Z"/><path class="cls-1" d="M185.09,244.65c.1,1.26.19,2.51.28,3.76C183.46,247.29,184.07,246,185.09,244.65Z"/><path class="cls-1" d="M126.32,180.66h4c1.46,2.11-1,5.32,2,7,0,.66.05,1.31.07,2-7.07,2.62-1.62-8.08-5.93-4.05C126.37,183.93,126.34,182.29,126.32,180.66Z"/><path class="cls-1" d="M196.21,242.72c-.8-1.62-1.59-3.24-2.39-4.87C196.91,238.35,196.06,240.78,196.21,242.72Z"/><path class="cls-1" d="M132.26,187.66c-2.33,1-3.2-.11-2.7-2.2a17.59,17.59,0,0,0,.74-4.81c1.19.71.94,1.92,1,3A6.8,6.8,0,0,1,132.26,187.66Z"/></g></g></svg>