<svg xmlns="http://www.w3.org/2000/svg" viewBox="0 0 203.28 414.65"><defs><style>.cls-1{fill:#fac748;}.cls-2{fill:#51af3c;}.cls-3{fill:#fff;}</style></defs><g id="Capa_2" data-name="Capa 2"><g id="Capa_1-2" data-name="Capa 1"><path class="cls-1" d="M59.65.37c-13,.16-25.34.48-27.35.72-10.63,1.28-19,5.54-24,12.17A35.5,35.5,0,0,0,2.43,25.82c-.8,3.33-.88,5-1,21.88-.16,14.82-.28,18.39-.76,19-.85,1.25-.85,25.82,0,27s.84,15.26,0,16.38-.89,25.74,0,27c.52.73.6,15.9.72,124.82l.08,124,.92,3.42A30.66,30.66,0,0,0,19.94,410,56.07,56.07,0,0,0,33,413.41c14,1.65,123.65,1.65,137.3,0,9.32-1.12,17.59-4.69,22.81-10a30.29,30.29,0,0,0,7.79-13.89l.92-3.22.12-126.1c.08-111.13.16-126.19.68-126.63.89-.72.89-26.3,0-27.54-.48-.72-.6-6.35-.72-38.95-.16-41.11,0-39.34-2.29-45.72C195.75,10.24,185.47,2.9,171.26,1.13c-3.7-.48-54-1.2-74.84-1.12C89.23.05,72.69.21,59.65.37ZM194.42,42.88c.77.45.77,2.69.77,165.34,0,127.75-.12,165-.49,165.41s-21.6.48-93.1.48c-83.67,0-92.7-.08-93.26-.64s-.65-16.1-.65-165.09c0-90.46.16-164.69.32-164.93a2.3,2.3,0,0,1,.89-.69C10.06,42.32,193.58,42.44,194.42,42.88Z"/><circle class="cls-2" cx="101.64" cy="207.32" r="64.72"/><path class="cls-3" d="M92.28,235.3A6.55,6.55,0,0,1,87,232.76q-9.43-10.95-18.84-21.93a6.46,6.46,0,0,1-.85-7.72,6.39,6.39,0,0,1,6.92-3A6.79,6.79,0,0,1,78,202.56c4.37,5.09,8.77,10.16,13.1,15.29.86,1,1.3,1.11,2.24.05q15.68-17.84,31.42-35.58c1.48-1.68,3.13-3,5.49-3a6.17,6.17,0,0,1,5.82,3.54,5.9,5.9,0,0,1-.68,6.76c-2.91,3.5-6,6.87-9,10.29Q112,216.31,97.51,232.7A7,7,0,0,1,92.28,235.3Z"/></g></g></svg>