<svg xmlns="http://www.w3.org/2000/svg" viewBox="0 0 203.28 414.65"><defs><style>.cls-1{fill:#fac748;}</style></defs><g id="Capa_2" data-name="Capa 2"><g id="Capa_1-2" data-name="Capa 1"><path class="cls-1" d="M59.65.37c-13,.16-25.34.48-27.35.72-10.63,1.28-19,5.54-24,12.17A35.5,35.5,0,0,0,2.43,25.82c-.8,3.33-.88,5-1,21.88-.16,14.82-.28,18.39-.76,19-.85,1.25-.85,25.82,0,27s.84,15.26,0,16.38-.89,25.74,0,27c.52.73.6,15.9.72,124.82l.08,124,.92,3.42A30.66,30.66,0,0,0,19.94,410,56.07,56.07,0,0,0,33,413.41c14,1.65,123.65,1.65,137.3,0,9.32-1.12,17.59-4.69,22.81-10a30.29,30.29,0,0,0,7.79-13.89l.92-3.22.12-126.1c.08-111.13.16-126.19.68-126.63.89-.72.89-26.3,0-27.54-.48-.72-.6-6.35-.72-38.95-.16-41.11,0-39.34-2.29-45.72C195.75,10.24,185.47,2.9,171.26,1.13c-3.7-.48-54-1.2-74.84-1.12C89.23.05,72.69.21,59.65.37ZM194.42,42.88c.77.45.77,2.69.77,165.34,0,127.75-.12,165-.49,165.41s-21.6.48-93.1.48c-83.67,0-92.7-.08-93.26-.64s-.65-16.1-.65-165.09c0-90.46.16-164.69.32-164.93a2.3,2.3,0,0,1,.89-.69C10.06,42.32,193.58,42.44,194.42,42.88Z"/><rect class="cls-1" x="40.41" y="234.79" width="122.45" height="21.55"/><path class="cls-1" d="M145.07,100.05H58.21c-5.36,0-8.26,2.91-8.26,8.3q0,32.7,0,65.4c0,5.52,2.84,8.34,8.4,8.37,3.75,0,7.5.06,11.24,0,1.31,0,1.7.33,1.67,1.67-.09,4.07,0,8.15,0,12.8,4.55-4.56,8.77-8.72,12.9-13a4.64,4.64,0,0,1,3.68-1.49q28.57.07,57.17,0c5.42,0,8.32-2.72,8.33-8q.06-33,0-66C153.3,102.81,150.42,100.06,145.07,100.05ZM64.82,120.49a3.33,3.33,0,0,1,3.08-3.15c.53,0,1.07-.07,1.6-.07H134c3,0,4.43,1,4.59,3.28.19,2.49-1.31,4-4,4q-16.44,0-32.88,0t-32.87,0C66.23,124.57,64.48,122.8,64.82,120.49Zm70,43.42c-7.49,0-15,0-22.45,0H101.73q-16.53,0-33.07,0a3.68,3.68,0,0,1-3-6.05,3.66,3.66,0,0,1,3.22-1.23c5.28,0,10.56,0,15.84,0h49.71c2.72,0,4.13,1.18,4.22,3.43S137.29,163.91,134.81,163.91Zm0-19.67c-6.88,0-13.76,0-20.64,0H101.72c-11,0-21.92,0-32.88,0a3.66,3.66,0,0,1-3.71-2.15A3.63,3.63,0,0,1,68.7,137c3.34,0,6.68,0,10,0h55.52c2.91,0,4.33,1.14,4.41,3.45S137.27,144.23,134.79,144.24Z"/></g></g></svg>